<svg xml:space="preserve" viewBox="48.96 28.96 109.60000000000001 42.199999999999996" version="1.1" xmlns:xlink="http://www.w3.org/1999/xlink" xmlns="http://www.w3.org/2000/svg" style="max-height: 500px" width="109.60000000000001" height="42.199999999999996">
<defs>
</defs>
<g id="69f20171-6b77-4e44-aea6-d1e348a21d5a" transform="matrix(1 0 0 1 100 50)">
<rect height="100" width="200" ry="0" rx="0" y="-50" x="-100" style="stroke: none; stroke-width: 1; stroke-dasharray: none; stroke-linecap: butt; stroke-dashoffset: 0; stroke-linejoin: miter; stroke-miterlimit: 4; fill: #111827; fill-rule: nonzero; opacity: 1; visibility: hidden;"/>
</g>
<g id="34e6bb2e-5293-4c37-93f3-cf2a357890a9" transform="matrix(Infinity NaN NaN Infinity 0 0)">
</g>
<g transform="matrix(0.09 0 0 0.09 250 150)">
<g style="">
		<g transform="matrix(0.4 0 0 0.4 -57.34 -3.13)">
<path stroke-linecap="round" d="M 0 0" transform="translate(0, 0)" style="stroke: rgb(0,0,0); stroke-width: 1; stroke-dasharray: none; stroke-linecap: butt; stroke-dashoffset: 0; stroke-linejoin: miter; stroke-miterlimit: 4; fill: #111827; fill-opacity: 0; fill-rule: nonzero; opacity: 1;"/>
</g>
		<g transform="matrix(0.4 0 0 0.41 -39.76 -2.81)">
<path stroke-linecap="round" d="M -27.31092 26.19048 L 3.7815200000000004 -26.190469999999998 L 19.74791 -26.190469999999998 L 27.310940000000002 26.19048 L 13.585450000000002 26.19048 L 12.121290000000002 15.78486 L -7.362759999999998 15.78486 L -13.812179999999998 26.19048 L -27.31091 26.19048" transform="translate(0, 0)" style="stroke: rgb(0,0,0); stroke-width: 0; stroke-dasharray: none; stroke-linecap: butt; stroke-dashoffset: 0; stroke-linejoin: miter; stroke-miterlimit: 4; fill: rgb(230,53,47); fill-rule: nonzero; opacity: 1;"/>
</g>
		<g transform="matrix(0.4 0 0 0.4 -37.7 -4.14)">
<path stroke-linecap="round" d="M 4.27699 -9.70808 L -6.92464 9.70808 L 6.92465 9.70808 z" transform="translate(0, 0)" style="stroke: rgb(0,0,0); stroke-width: 0; stroke-dasharray: none; stroke-linecap: butt; stroke-dashoffset: 0; stroke-linejoin: miter; stroke-miterlimit: 4; fill: #111827; fill-rule: nonzero; opacity: 1;"/>
</g>
		<g transform="matrix(0.4 0 0 0.4 -14.54 -0.05)">
<path stroke-linecap="round" d="M -19.68513 -20.12915 L -28.917990000000003 20.129160000000002 L -16.901700000000005 20.129160000000002 L -11.402720000000006 -4.951379999999997 L -11.402720000000006 -4.951379999999997 L -5.564300000000006 11.613450000000004 L -0.06532000000000515 11.613450000000004 L 13.037189999999995 -4.951379999999997 L 12.662679999999995 -3.3042599999999966 L 7.334539999999994 20.129160000000006 L 19.554499999999994 20.129160000000006 L 28.917969999999993 -20.129149999999996 L 15.611789999999994 -20.129149999999996 L 0.20622999999999436 -1.7606199999999959 L -6.0446900000000054 -20.129149999999996 z" transform="translate(0, 0)" style="stroke: rgb(0,0,0); stroke-width: 0; stroke-dasharray: none; stroke-linecap: butt; stroke-dashoffset: 0; stroke-linejoin: miter; stroke-miterlimit: 4; fill: rgb(230,53,47); fill-rule: nonzero; opacity: 1;"/>
</g>
		<g transform="matrix(0.4 0 0 0.4 8.24 -0.14)">
<path stroke-linecap="round" d="M -15.37678 -20.12915 L -24.54175 20.129160000000002 L -12.26908 20.129160000000002 L -5.339170000000001 -11.716809999999999 L 9.966529999999999 -11.716809999999999 L 2.817379999999999 19.84216 L 15.444669999999999 19.84216 L 24.54175 -20.12914 z" transform="translate(0, 0)" style="stroke: rgb(0,0,0); stroke-width: 0; stroke-dasharray: none; stroke-linecap: butt; stroke-dashoffset: 0; stroke-linejoin: miter; stroke-miterlimit: 4; fill: rgb(230,53,47); fill-rule: nonzero; opacity: 1;"/>
</g>
		<g transform="matrix(0.4 0 0 0.4 12.03 -3.92)">
<path stroke-linecap="round" d="M 0 0" transform="translate(0, 0)" style="stroke: rgb(0,0,0); stroke-width: 1; stroke-dasharray: none; stroke-linecap: butt; stroke-dashoffset: 0; stroke-linejoin: miter; stroke-miterlimit: 4; fill: #111827; fill-opacity: 0; fill-rule: nonzero; opacity: 1;"/>
</g>
		<g transform="matrix(0.4 0 0 0.4 32.58 -2.4)">
<path stroke-linecap="round" d="M 0 0" transform="translate(0, 0)" style="stroke: rgb(0,0,0); stroke-width: 1; stroke-dasharray: none; stroke-linecap: butt; stroke-dashoffset: 0; stroke-linejoin: miter; stroke-miterlimit: 4; fill: #111827; fill-opacity: 0; fill-rule: nonzero; opacity: 1;"/>
</g>
		<g transform="matrix(0.4 0 0 0.4 32.58 -2.4)">
<path stroke-linecap="round" d="M 0 0" transform="translate(0, 0)" style="stroke: rgb(0,0,0); stroke-width: 1; stroke-dasharray: none; stroke-linecap: butt; stroke-dashoffset: 0; stroke-linejoin: miter; stroke-miterlimit: 4; fill: #111827; fill-opacity: 0; fill-rule: nonzero; opacity: 1;"/>
</g>
		<g transform="matrix(0.4 0 0 0.4 28.75 -0.05)">
<path stroke-linecap="round" d="M 21.51363 -4.97142 C 21.13636 -1.65009 20.69709 -0.6459200000000003 19.858439999999998 1.3357799999999997 L 19.858439999999998 1.3357799999999997 C 19.64221 1.8467299999999998 19.141229999999997 2.1787199999999998 18.586399999999998 2.1787199999999998 L -9.762000000000004 2.1787199999999998 C -9.762000000000004 2.1787199999999998 -9.954260000000003 4.893409999999999 -8.796230000000005 7.28383 C -8.023590000000006 8.87872 -6.177960000000005 10.02186 -5.1713800000000045 10.592130000000001 C -2.7490900000000047 11.964440000000002 0.9777899999999953 11.91229 2.969489999999995 11.856090000000002 C 7.405679999999995 11.730890000000002 11.799559999999994 10.166720000000002 11.799559999999994 10.166720000000002 L 17.707069999999995 7.608410000000001 L 17.707069999999995 7.608410000000001 C 17.858229999999995 7.542950000000001 18.032999999999994 7.564610000000001 18.163609999999995 7.664990000000001 C 18.294219999999996 7.765370000000002 18.360119999999995 7.928690000000001 18.335759999999993 8.091600000000001 C 18.102819999999994 9.649350000000002 17.972569999999994 10.511010000000002 17.403299999999994 12.772560000000002 C 17.001149999999996 14.370190000000003 16.718469999999993 15.555970000000002 15.747539999999994 16.974780000000003 C 14.338589999999993 19.03366 10.694639999999993 19.776040000000002 9.433949999999994 20.126430000000003 C 6.795389999999994 20.859780000000004 3.6470299999999938 21.150040000000004 1.9498199999999937 21.126430000000003 C 1.1227999999999936 21.11492 0.23143999999999365 21.14852 -0.6658500000000065 21.126430000000003 C -1.8893900000000066 21.096300000000003 -3.1239700000000066 21.002140000000004 -4.221490000000006 20.91343 C -6.926120000000006 20.694840000000003 -9.161400000000008 20.126430000000003 -9.161400000000008 20.126430000000003 C -9.161400000000008 20.126430000000003 -13.063260000000007 19.287770000000002 -15.791780000000006 17.256550000000004 C -18.349580000000007 15.352430000000004 -19.737950000000005 12.261990000000004 -19.938430000000007 11.856100000000005 C -20.150330000000007 11.427070000000004 -21.17695000000001 9.485550000000005 -21.461940000000006 7.016980000000005 C -21.607910000000004 5.752630000000004 -21.810950000000005 1.0567500000000045 -21.123860000000004 -2.738239999999995 C -20.562380000000005 -5.839419999999995 -19.260780000000004 -8.009979999999995 -18.058040000000005 -9.947459999999996 C -15.295380000000005 -14.397779999999996 -10.242480000000006 -17.400829999999996 -10.242480000000006 -17.400829999999996 C -10.242480000000006 -17.400829999999996 -7.195620000000005 -19.217049999999997 -3.2500600000000057 -20.165579999999995 C 0.6548199999999942 -21.104329999999994 5.458539999999995 -21.175799999999995 5.514239999999995 -21.120089999999994 C 5.5714199999999945 -21.062909999999995 8.667759999999994 -21.183629999999994 11.264339999999994 -20.626969999999993 C 12.353689999999993 -20.39342999999999 15.006799999999993 -19.556469999999994 16.938789999999994 -18.007959999999994 C 17.968519999999994 -17.182619999999993 20.070989999999995 -14.950639999999993 20.822909999999993 -12.439959999999994 C 21.27405999999999 -10.933549999999993 21.83195999999999 -7.773829999999994 21.513619999999992 -4.971379999999994 z" transform="translate(0, 0)" style="stroke: rgb(0,0,0); stroke-width: 0; stroke-dasharray: none; stroke-linecap: butt; stroke-dashoffset: 0; stroke-linejoin: miter; stroke-miterlimit: 4; fill: rgb(230,53,47); fill-rule: nonzero; opacity: 1;"/>
</g>
		<g transform="matrix(5.0107917741784785e+54 0 0 5.0107917741784785e+54 33.07 3.8)">
<path stroke-linecap="round" d="M 0 0 z" transform="translate(0, 0)" style="stroke: rgb(0,0,0); stroke-width: 1; stroke-dasharray: none; stroke-linecap: butt; stroke-dashoffset: 0; stroke-linejoin: miter; stroke-miterlimit: 4; fill: #111827; fill-opacity: 0; fill-rule: nonzero; opacity: 1;"/>
</g>
		<g transform="matrix(0.4 0 0 0.4 25.54 -2.4)">
<path stroke-linecap="round" d="M 0 0" transform="translate(0, 0)" style="stroke: rgb(0,0,0); stroke-width: 0; stroke-dasharray: none; stroke-linecap: butt; stroke-dashoffset: 0; stroke-linejoin: miter; stroke-miterlimit: 4; fill: none; fill-rule: nonzero; opacity: 1;"/>
</g>
		<g transform="matrix(0.4 0 0 0.4 42.63 2.58)">
<path stroke-linecap="round" d="M -12.63747 27.21829 L -0.10855000000000103 -27.218280000000004 L 12.637469999999999 -27.218280000000004 L -0.10855000000000103 27.21829 z" transform="translate(0, 0)" style="stroke: rgb(0,0,0); stroke-width: 0; stroke-dasharray: none; stroke-linecap: butt; stroke-dashoffset: 0; stroke-linejoin: miter; stroke-miterlimit: 4; fill: rgb(230,53,47); fill-rule: nonzero; opacity: 1;"/>
</g>
		<g transform="matrix(0.44 0 0 0.44 29.66 -4.12)">
<path stroke-linecap="round" d="M 1.16863 3.95183 C 5.18531 3.9582100000000002 8.89416 3.99372 8.89516 3.8778 C 8.919780000000001 1.03791 8.269120000000001 -1.6051600000000001 6.01515 -2.92505 C 4.13959 -4.02336 1.1147900000000002 -4.17377 -0.7126399999999995 -3.7273300000000003 C -2.676939999999999 -3.24745 -4.953399999999999 -2.0276000000000005 -6.2971699999999995 -0.5944200000000004 C -8.279969999999999 1.5202899999999997 -8.89583 3.95184 -8.89583 3.95184 C -8.89583 3.95184 -3.6383799999999997 3.94421 1.1686300000000003 3.95184 z" transform="translate(0, 0)" style="stroke: rgb(0,0,0); stroke-width: 0; stroke-dasharray: none; stroke-linecap: butt; stroke-dashoffset: 0; stroke-linejoin: miter; stroke-miterlimit: 4; fill: #111827; fill-rule: nonzero; opacity: 1;"/>
</g>
		<g transform="matrix(0.4 0 0 0.4 -5.35 15.7)">
<path stroke-linecap="round" d="M 48.15782 -12.21961 L -48.08014 -12.21961 L -48.08014 5.537570000000002 L -75.99307 5.537570000000002 L -75.99307 -12.21961 L -104.2249 -12.21961 L -104.2249 -5.089529999999999 L -83.09124 -5.089529999999999 L -83.09124 12.21961 L -41.17382 12.21961 L -41.17382 -5.08953 C -41.17382 -5.08953 41.79564 -5.42925 41.724970000000006 -5.08953 C 41.65429 -4.74981 41.724970000000006 11.835360000000001 41.724970000000006 11.835360000000001 L 82.86113 11.835360000000001 C 82.86113 11.835360000000001 83.07202000000001 -5.09085 82.86113 -5.08953 C 82.65024 -5.08821 104.22492 -5.08953 104.22492 -5.08953 L 104.22492 -12.21961 L 75.95203 -12.21961 L 75.95203 5.537570000000002 C 75.95203 5.537570000000002 48.15747999999999 5.747970000000002 48.15783999999999 5.537570000000002 C 48.15818999999999 5.327170000000002 48.15783999999999 -12.21961 48.15783999999999 -12.21961 z" transform="translate(0, 0)" style="stroke: rgb(0,0,0); stroke-width: 0; stroke-dasharray: none; stroke-linecap: butt; stroke-dashoffset: 0; stroke-linejoin: miter; stroke-miterlimit: 4; fill: rgb(230,53,47); fill-rule: nonzero; opacity: 1;"/>
</g>
		<g transform="matrix(0.4 0 0 0.4 -47.24 14.99)">
<path stroke-linecap="round" d="M 0 0" transform="translate(0, 0)" style="stroke: rgb(0,0,0); stroke-width: 1; stroke-dasharray: none; stroke-linecap: butt; stroke-dashoffset: 0; stroke-linejoin: miter; stroke-miterlimit: 4; fill: #111827; fill-opacity: 0; fill-rule: nonzero; opacity: 1;"/>
</g>
		<g transform="matrix(0.4 0 0 0.4 19.61 12.25)">
<path stroke-linecap="round" d="M -10.05122 -3.53828 L -10.05122 3.53828 L 10.051209999999998 3.53828 L 10.051209999999998 -3.53828 z" transform="translate(0, 0)" style="stroke: rgb(0,0,0); stroke-width: 0; stroke-dasharray: none; stroke-linecap: butt; stroke-dashoffset: 0; stroke-linejoin: miter; stroke-miterlimit: 4; fill: rgb(230,53,47); fill-rule: nonzero; opacity: 1;"/>
</g>
		<g transform="matrix(0.4 0 0 0.4 -30.06 12.31)">
<path stroke-linecap="round" d="M -10.17584 -3.55245 L -10.17584 3.38559 L -3.652590000000001 3.38559 L -3.652590000000001 10.01989 L 3.210919999999999 10.01989 L 3.210919999999999 3.3855900000000005 L 10.175829999999998 3.3855900000000005 L 10.175829999999998 -3.5524499999999994 L 3.210919999999998 -3.5524499999999994 L 3.210919999999998 -10.01989 L -3.652590000000002 -10.01989 L -3.652590000000002 -3.5524500000000003 z" transform="translate(0, 0)" style="stroke: rgb(0,0,0); stroke-width: 0; stroke-dasharray: none; stroke-linecap: butt; stroke-dashoffset: 0; stroke-linejoin: miter; stroke-miterlimit: 4; fill: rgb(230,53,47); fill-rule: nonzero; opacity: 1;"/>
</g>
		<g transform="matrix(0.4 0 0 0.4 38.51 -12.23)">
<path stroke-linecap="round" d="M -10.17584 -3.55245 L -10.17584 3.38559 L -3.652590000000001 3.38559 L -3.652590000000001 10.01989 L 3.210919999999999 10.01989 L 3.210919999999999 3.3855900000000005 L 10.175829999999998 3.3855900000000005 L 10.175829999999998 -3.5524499999999994 L 3.210919999999998 -3.5524499999999994 L 3.210919999999998 -10.01989 L -3.652590000000002 -10.01989 L -3.652590000000002 -3.5524500000000003 z" transform="translate(0, 0)" style="stroke: rgb(0,0,0); stroke-width: 0; stroke-dasharray: none; stroke-linecap: butt; stroke-dashoffset: 0; stroke-linejoin: miter; stroke-miterlimit: 4; fill: rgb(230,53,47); fill-rule: nonzero; opacity: 1;"/>
</g>
		<g transform="matrix(0.4 0 0 0.4 -11.26 -12.23)">
<path stroke-linecap="round" d="M -10.05122 -3.53828 L -10.05122 3.53828 L 10.051209999999998 3.53828 L 10.051209999999998 -3.53828 z" transform="translate(0, 0)" style="stroke: rgb(0,0,0); stroke-width: 0; stroke-dasharray: none; stroke-linecap: butt; stroke-dashoffset: 0; stroke-linejoin: miter; stroke-miterlimit: 4; fill: rgb(230,53,47); fill-rule: nonzero; opacity: 1;"/>
</g>
		<g transform="matrix(0.4 0 0 -0.4 12.52 -15.7)">
<path stroke-linecap="round" d="M 50.6537 -12.21961 L -45.58426 -12.21961 L -45.58426 5.537570000000002 L -73.49719 5.537570000000002 L -73.49719 -12.21961 L -106.72079 -12.21961 L -106.72079 -5.437869999999999 L -80.59536 -5.089519999999999 L -80.59536 12.219619999999999 L -38.67794 12.219619999999999 L -38.67794 -5.08952 C -38.67794 -5.08952 44.29152 -5.42924 44.220850000000006 -5.08952 C 44.15017 -4.7498000000000005 44.220850000000006 11.835370000000001 44.220850000000006 11.835370000000001 L 85.35701 11.835370000000001 C 85.35701 11.835370000000001 85.56790000000001 -5.09084 85.35701 -5.08952 C 85.14612 -5.0882000000000005 106.7208 -5.08952 106.7208 -5.08952 L 106.7208 -12.2196 L 78.44791 -12.2196 L 78.44791 5.537580000000002 C 78.44791 5.537580000000002 50.65335999999999 5.747980000000002 50.65371999999999 5.537580000000002 C 50.65406999999999 5.327180000000002 50.65371999999999 -12.2196 50.65371999999999 -12.2196 z" transform="translate(0, 0)" style="stroke: rgb(0,0,0); stroke-width: 0; stroke-dasharray: none; stroke-linecap: butt; stroke-dashoffset: 0; stroke-linejoin: miter; stroke-miterlimit: 4; fill: rgb(230,53,47); fill-rule: nonzero; opacity: 1;"/>
</g>
		<g transform="matrix(0.4 0 0 0.4 47.88 -4.45)">
<path stroke-linecap="round" d="M 0 0" transform="translate(0, 0)" style="stroke: rgb(0,0,0); stroke-width: 1; stroke-dasharray: none; stroke-linecap: butt; stroke-dashoffset: 0; stroke-linejoin: miter; stroke-miterlimit: 4; fill: #111827; fill-opacity: 0; fill-rule: nonzero; opacity: 1;"/>
</g>
		<g transform="matrix(0.4 0 0 0.4 46.62 -3.72)">
<path stroke-linecap="round" d="M 0 0" transform="translate(0, 0)" style="stroke: rgb(0,0,0); stroke-width: 1; stroke-dasharray: none; stroke-linecap: butt; stroke-dashoffset: 0; stroke-linejoin: miter; stroke-miterlimit: 4; fill: #111827; fill-opacity: 0; fill-rule: nonzero; opacity: 1;"/>
</g>
		<g transform="matrix(0.4 0 0 0.4 50.96 -0.23)">
<path stroke-linecap="round" d="M -9.64474 -15.61772 C -9.64474 -15.61772 7.860709999999999 -27.671219999999998 15.421339999999999 -15.11772 C 16.94322 -12.59083 18.523789999999998 -4.117890000000001 15.421339999999999 3.2734199999999998 C 14.622689999999999 5.17613 12.041249999999998 12.38641 7.2457899999999995 16.318820000000002 C 2.5299299999999993 20.18596 -4.395150000000001 20.79157 -5.8683 20.825200000000002 C -11.29219 20.949030000000004 -15.331859999999999 18.473660000000002 -17.20347 17.84034" transform="translate(0, 0)" style="stroke: rgb(0,0,0); stroke-width: 0; stroke-dasharray: none; stroke-linecap: butt; stroke-dashoffset: 0; stroke-linejoin: miter; stroke-miterlimit: 4; fill: rgb(230,53,47); fill-rule: nonzero; opacity: 1;"/>
</g>
		<g transform="matrix(0.4 0 0 0.4 48.76 -0.08)">
<path stroke-linecap="round" d="M -5.22305 -8.93227 C -4.9411 -9.075230000000001 1.7877400000000003 -12.83866 5.7746699999999995 -11.40802 C 7.3643 -10.83761 9.126439999999999 -8.27642 9.496659999999999 -5.28636 C 9.858039999999999 -2.3677 8.849459999999999 0.9796899999999997 8.59264 1.6587199999999998 C 7.76221 3.8543499999999997 5.706059999999999 8.78921 2.321929999999999 10.451529999999998 C -2.3238600000000007 12.733589999999998 -8.58905 11.344389999999999 -9.57397 10.975049999999998" transform="translate(0, 0)" style="stroke: rgb(0,0,0); stroke-width: 0; stroke-dasharray: none; stroke-linecap: butt; stroke-dashoffset: 0; stroke-linejoin: miter; stroke-miterlimit: 4; fill: #111827; fill-rule: nonzero; opacity: 1;"/>
</g>
		<g transform="matrix(0.4 0 0 0.4 47.3 -6.47)">
<path stroke-linecap="round" d="M 0 0" transform="translate(0, 0)" style="stroke: rgb(0,0,0); stroke-width: 1; stroke-dasharray: none; stroke-linecap: butt; stroke-dashoffset: 0; stroke-linejoin: miter; stroke-miterlimit: 4; fill: #111827; fill-opacity: 0; fill-rule: nonzero; opacity: 1;"/>
</g>
		<g transform="matrix(0.4 0 0 0.4 47.3 -6.27)">
<path stroke-linecap="round" d="M 0 0" transform="translate(0, 0)" style="stroke: rgb(0,0,0); stroke-width: 1; stroke-dasharray: none; stroke-linecap: butt; stroke-dashoffset: 0; stroke-linejoin: miter; stroke-miterlimit: 4; fill: #111827; fill-opacity: 0; fill-rule: nonzero; opacity: 1;"/>
</g>
		<g transform="matrix(0.4 0 0 0.4 47.1 -6.27)">
<path stroke-linecap="round" d="M 0 0" transform="translate(0, 0)" style="stroke: rgb(0,0,0); stroke-width: 1; stroke-dasharray: none; stroke-linecap: butt; stroke-dashoffset: 0; stroke-linejoin: miter; stroke-miterlimit: 4; fill: #111827; fill-opacity: 0; fill-rule: nonzero; opacity: 1;"/>
</g>
</g>
</g>
<g transform="matrix(NaN NaN NaN NaN 0 0)">
<g style="">
</g>
</g>
<g transform="matrix(NaN NaN NaN NaN 0 0)">
<g style="">
</g>
</g>
<g transform="matrix(NaN NaN NaN NaN 0 0)">
<g style="">
</g>
</g>
<g transform="matrix(NaN NaN NaN NaN 0 0)">
<g style="">
</g>
</g>
<g transform="matrix(NaN NaN NaN NaN 0 0)">
<g style="">
</g>
</g>
<g transform="matrix(NaN NaN NaN NaN 0 0)">
<g style="">
</g>
</g>
<g transform="matrix(1 0 0 1 100 50)">
<g style="">
		<g transform="matrix(0.4 0 0 0.4 -57.34 -3.13)">
<path stroke-linecap="round" d="M 0 0" transform="translate(0, 0)" style="stroke: rgb(0,0,0); stroke-width: 1; stroke-dasharray: none; stroke-linecap: butt; stroke-dashoffset: 0; stroke-linejoin: miter; stroke-miterlimit: 4; fill: #111827; fill-opacity: 0; fill-rule: nonzero; opacity: 1;"/>
</g>
		<g transform="matrix(0.4 0 0 0.41 -39.76 -2.81)">
<path stroke-linecap="round" d="M -27.31092 26.19048 L 3.7815200000000004 -26.190469999999998 L 19.74791 -26.190469999999998 L 27.310940000000002 26.19048 L 13.585450000000002 26.19048 L 12.121290000000002 15.78486 L -7.362759999999998 15.78486 L -13.812179999999998 26.19048 L -27.31091 26.19048" transform="translate(0, 0)" style="stroke: rgb(0,0,0); stroke-width: 0; stroke-dasharray: none; stroke-linecap: butt; stroke-dashoffset: 0; stroke-linejoin: miter; stroke-miterlimit: 4; fill: rgb(230,53,47); fill-rule: nonzero; opacity: 1;"/>
</g>
		<g transform="matrix(0.4 0 0 0.4 -37.7 -4.14)">
<path stroke-linecap="round" d="M 4.27699 -9.70808 L -6.92464 9.70808 L 6.92465 9.70808 z" transform="translate(0, 0)" style="stroke: rgb(0,0,0); stroke-width: 0; stroke-dasharray: none; stroke-linecap: butt; stroke-dashoffset: 0; stroke-linejoin: miter; stroke-miterlimit: 4; fill: #111827; fill-rule: nonzero; opacity: 1;"/>
</g>
		<g transform="matrix(0.4 0 0 0.4 -14.54 -0.05)">
<path stroke-linecap="round" d="M -19.68513 -20.12915 L -28.917990000000003 20.129160000000002 L -16.901700000000005 20.129160000000002 L -11.402720000000006 -4.951379999999997 L -11.402720000000006 -4.951379999999997 L -5.564300000000006 11.613450000000004 L -0.06532000000000515 11.613450000000004 L 13.037189999999995 -4.951379999999997 L 12.662679999999995 -3.3042599999999966 L 7.334539999999994 20.129160000000006 L 19.554499999999994 20.129160000000006 L 28.917969999999993 -20.129149999999996 L 15.611789999999994 -20.129149999999996 L 0.20622999999999436 -1.7606199999999959 L -6.0446900000000054 -20.129149999999996 z" transform="translate(0, 0)" style="stroke: rgb(0,0,0); stroke-width: 0; stroke-dasharray: none; stroke-linecap: butt; stroke-dashoffset: 0; stroke-linejoin: miter; stroke-miterlimit: 4; fill: rgb(230,53,47); fill-rule: nonzero; opacity: 1;"/>
</g>
		<g transform="matrix(0.4 0 0 0.4 8.24 -0.14)">
<path stroke-linecap="round" d="M -15.37678 -20.12915 L -24.54175 20.129160000000002 L -12.26908 20.129160000000002 L -5.339170000000001 -11.716809999999999 L 9.966529999999999 -11.716809999999999 L 2.817379999999999 19.84216 L 15.444669999999999 19.84216 L 24.54175 -20.12914 z" transform="translate(0, 0)" style="stroke: rgb(0,0,0); stroke-width: 0; stroke-dasharray: none; stroke-linecap: butt; stroke-dashoffset: 0; stroke-linejoin: miter; stroke-miterlimit: 4; fill: rgb(230,53,47); fill-rule: nonzero; opacity: 1;"/>
</g>
		<g transform="matrix(0.4 0 0 0.4 12.03 -3.92)">
<path stroke-linecap="round" d="M 0 0" transform="translate(0, 0)" style="stroke: rgb(0,0,0); stroke-width: 1; stroke-dasharray: none; stroke-linecap: butt; stroke-dashoffset: 0; stroke-linejoin: miter; stroke-miterlimit: 4; fill: #111827; fill-opacity: 0; fill-rule: nonzero; opacity: 1;"/>
</g>
		<g transform="matrix(0.4 0 0 0.4 32.58 -2.4)">
<path stroke-linecap="round" d="M 0 0" transform="translate(0, 0)" style="stroke: rgb(0,0,0); stroke-width: 1; stroke-dasharray: none; stroke-linecap: butt; stroke-dashoffset: 0; stroke-linejoin: miter; stroke-miterlimit: 4; fill: #111827; fill-opacity: 0; fill-rule: nonzero; opacity: 1;"/>
</g>
		<g transform="matrix(0.4 0 0 0.4 32.58 -2.4)">
<path stroke-linecap="round" d="M 0 0" transform="translate(0, 0)" style="stroke: rgb(0,0,0); stroke-width: 1; stroke-dasharray: none; stroke-linecap: butt; stroke-dashoffset: 0; stroke-linejoin: miter; stroke-miterlimit: 4; fill: #111827; fill-opacity: 0; fill-rule: nonzero; opacity: 1;"/>
</g>
		<g transform="matrix(0.4 0 0 0.4 28.75 -0.05)">
<path stroke-linecap="round" d="M 21.51363 -4.97142 C 21.13636 -1.65009 20.69709 -0.6459200000000003 19.858439999999998 1.3357799999999997 L 19.858439999999998 1.3357799999999997 C 19.64221 1.8467299999999998 19.141229999999997 2.1787199999999998 18.586399999999998 2.1787199999999998 L -9.762000000000004 2.1787199999999998 C -9.762000000000004 2.1787199999999998 -9.954260000000003 4.893409999999999 -8.796230000000005 7.28383 C -8.023590000000006 8.87872 -6.177960000000005 10.02186 -5.1713800000000045 10.592130000000001 C -2.7490900000000047 11.964440000000002 0.9777899999999953 11.91229 2.969489999999995 11.856090000000002 C 7.405679999999995 11.730890000000002 11.799559999999994 10.166720000000002 11.799559999999994 10.166720000000002 L 17.707069999999995 7.608410000000001 L 17.707069999999995 7.608410000000001 C 17.858229999999995 7.542950000000001 18.032999999999994 7.564610000000001 18.163609999999995 7.664990000000001 C 18.294219999999996 7.765370000000002 18.360119999999995 7.928690000000001 18.335759999999993 8.091600000000001 C 18.102819999999994 9.649350000000002 17.972569999999994 10.511010000000002 17.403299999999994 12.772560000000002 C 17.001149999999996 14.370190000000003 16.718469999999993 15.555970000000002 15.747539999999994 16.974780000000003 C 14.338589999999993 19.03366 10.694639999999993 19.776040000000002 9.433949999999994 20.126430000000003 C 6.795389999999994 20.859780000000004 3.6470299999999938 21.150040000000004 1.9498199999999937 21.126430000000003 C 1.1227999999999936 21.11492 0.23143999999999365 21.14852 -0.6658500000000065 21.126430000000003 C -1.8893900000000066 21.096300000000003 -3.1239700000000066 21.002140000000004 -4.221490000000006 20.91343 C -6.926120000000006 20.694840000000003 -9.161400000000008 20.126430000000003 -9.161400000000008 20.126430000000003 C -9.161400000000008 20.126430000000003 -13.063260000000007 19.287770000000002 -15.791780000000006 17.256550000000004 C -18.349580000000007 15.352430000000004 -19.737950000000005 12.261990000000004 -19.938430000000007 11.856100000000005 C -20.150330000000007 11.427070000000004 -21.17695000000001 9.485550000000005 -21.461940000000006 7.016980000000005 C -21.607910000000004 5.752630000000004 -21.810950000000005 1.0567500000000045 -21.123860000000004 -2.738239999999995 C -20.562380000000005 -5.839419999999995 -19.260780000000004 -8.009979999999995 -18.058040000000005 -9.947459999999996 C -15.295380000000005 -14.397779999999996 -10.242480000000006 -17.400829999999996 -10.242480000000006 -17.400829999999996 C -10.242480000000006 -17.400829999999996 -7.195620000000005 -19.217049999999997 -3.2500600000000057 -20.165579999999995 C 0.6548199999999942 -21.104329999999994 5.458539999999995 -21.175799999999995 5.514239999999995 -21.120089999999994 C 5.5714199999999945 -21.062909999999995 8.667759999999994 -21.183629999999994 11.264339999999994 -20.626969999999993 C 12.353689999999993 -20.39342999999999 15.006799999999993 -19.556469999999994 16.938789999999994 -18.007959999999994 C 17.968519999999994 -17.182619999999993 20.070989999999995 -14.950639999999993 20.822909999999993 -12.439959999999994 C 21.27405999999999 -10.933549999999993 21.83195999999999 -7.773829999999994 21.513619999999992 -4.971379999999994 z" transform="translate(0, 0)" style="stroke: rgb(0,0,0); stroke-width: 0; stroke-dasharray: none; stroke-linecap: butt; stroke-dashoffset: 0; stroke-linejoin: miter; stroke-miterlimit: 4; fill: rgb(230,53,47); fill-rule: nonzero; opacity: 1;"/>
</g>
		<g transform="matrix(5.0107917741784785e+54 0 0 5.0107917741784785e+54 33.07 3.8)">
<path stroke-linecap="round" d="M 0 0 z" transform="translate(0, 0)" style="stroke: rgb(0,0,0); stroke-width: 1; stroke-dasharray: none; stroke-linecap: butt; stroke-dashoffset: 0; stroke-linejoin: miter; stroke-miterlimit: 4; fill: #111827; fill-opacity: 0; fill-rule: nonzero; opacity: 1;"/>
</g>
		<g transform="matrix(0.4 0 0 0.4 25.54 -2.4)">
<path stroke-linecap="round" d="M 0 0" transform="translate(0, 0)" style="stroke: rgb(0,0,0); stroke-width: 0; stroke-dasharray: none; stroke-linecap: butt; stroke-dashoffset: 0; stroke-linejoin: miter; stroke-miterlimit: 4; fill: none; fill-rule: nonzero; opacity: 1;"/>
</g>
		<g transform="matrix(0.4 0 0 0.4 42.63 2.58)">
<path stroke-linecap="round" d="M -12.63747 27.21829 L -0.10855000000000103 -27.218280000000004 L 12.637469999999999 -27.218280000000004 L -0.10855000000000103 27.21829 z" transform="translate(0, 0)" style="stroke: rgb(0,0,0); stroke-width: 0; stroke-dasharray: none; stroke-linecap: butt; stroke-dashoffset: 0; stroke-linejoin: miter; stroke-miterlimit: 4; fill: rgb(230,53,47); fill-rule: nonzero; opacity: 1;"/>
</g>
		<g transform="matrix(0.44 0 0 0.44 29.66 -4.12)">
<path stroke-linecap="round" d="M 1.16863 3.95183 C 5.18531 3.9582100000000002 8.89416 3.99372 8.89516 3.8778 C 8.919780000000001 1.03791 8.269120000000001 -1.6051600000000001 6.01515 -2.92505 C 4.13959 -4.02336 1.1147900000000002 -4.17377 -0.7126399999999995 -3.7273300000000003 C -2.676939999999999 -3.24745 -4.953399999999999 -2.0276000000000005 -6.2971699999999995 -0.5944200000000004 C -8.279969999999999 1.5202899999999997 -8.89583 3.95184 -8.89583 3.95184 C -8.89583 3.95184 -3.6383799999999997 3.94421 1.1686300000000003 3.95184 z" transform="translate(0, 0)" style="stroke: rgb(0,0,0); stroke-width: 0; stroke-dasharray: none; stroke-linecap: butt; stroke-dashoffset: 0; stroke-linejoin: miter; stroke-miterlimit: 4; fill: #111827; fill-rule: nonzero; opacity: 1;"/>
</g>
		<g transform="matrix(0.4 0 0 0.4 -5.35 15.7)">
<path stroke-linecap="round" d="M 48.15782 -12.21961 L -48.08014 -12.21961 L -48.08014 5.537570000000002 L -75.99307 5.537570000000002 L -75.99307 -12.21961 L -104.2249 -12.21961 L -104.2249 -5.089529999999999 L -83.09124 -5.089529999999999 L -83.09124 12.21961 L -41.17382 12.21961 L -41.17382 -5.08953 C -41.17382 -5.08953 41.79564 -5.42925 41.724970000000006 -5.08953 C 41.65429 -4.74981 41.724970000000006 11.835360000000001 41.724970000000006 11.835360000000001 L 82.86113 11.835360000000001 C 82.86113 11.835360000000001 83.07202000000001 -5.09085 82.86113 -5.08953 C 82.65024 -5.08821 104.22492 -5.08953 104.22492 -5.08953 L 104.22492 -12.21961 L 75.95203 -12.21961 L 75.95203 5.537570000000002 C 75.95203 5.537570000000002 48.15747999999999 5.747970000000002 48.15783999999999 5.537570000000002 C 48.15818999999999 5.327170000000002 48.15783999999999 -12.21961 48.15783999999999 -12.21961 z" transform="translate(0, 0)" style="stroke: rgb(0,0,0); stroke-width: 0; stroke-dasharray: none; stroke-linecap: butt; stroke-dashoffset: 0; stroke-linejoin: miter; stroke-miterlimit: 4; fill: rgb(230,53,47); fill-rule: nonzero; opacity: 1;"/>
</g>
		<g transform="matrix(0.4 0 0 0.4 -47.24 14.99)">
<path stroke-linecap="round" d="M 0 0" transform="translate(0, 0)" style="stroke: rgb(0,0,0); stroke-width: 1; stroke-dasharray: none; stroke-linecap: butt; stroke-dashoffset: 0; stroke-linejoin: miter; stroke-miterlimit: 4; fill: #111827; fill-opacity: 0; fill-rule: nonzero; opacity: 1;"/>
</g>
		<g transform="matrix(0.4 0 0 0.4 19.61 12.25)">
<path stroke-linecap="round" d="M -10.05122 -3.53828 L -10.05122 3.53828 L 10.051209999999998 3.53828 L 10.051209999999998 -3.53828 z" transform="translate(0, 0)" style="stroke: rgb(0,0,0); stroke-width: 0; stroke-dasharray: none; stroke-linecap: butt; stroke-dashoffset: 0; stroke-linejoin: miter; stroke-miterlimit: 4; fill: rgb(230,53,47); fill-rule: nonzero; opacity: 1;"/>
</g>
		<g transform="matrix(0.4 0 0 0.4 -30.06 12.31)">
<path stroke-linecap="round" d="M -10.17584 -3.55245 L -10.17584 3.38559 L -3.652590000000001 3.38559 L -3.652590000000001 10.01989 L 3.210919999999999 10.01989 L 3.210919999999999 3.3855900000000005 L 10.175829999999998 3.3855900000000005 L 10.175829999999998 -3.5524499999999994 L 3.210919999999998 -3.5524499999999994 L 3.210919999999998 -10.01989 L -3.652590000000002 -10.01989 L -3.652590000000002 -3.5524500000000003 z" transform="translate(0, 0)" style="stroke: rgb(0,0,0); stroke-width: 0; stroke-dasharray: none; stroke-linecap: butt; stroke-dashoffset: 0; stroke-linejoin: miter; stroke-miterlimit: 4; fill: rgb(230,53,47); fill-rule: nonzero; opacity: 1;"/>
</g>
		<g transform="matrix(0.4 0 0 0.4 38.51 -12.23)">
<path stroke-linecap="round" d="M -10.17584 -3.55245 L -10.17584 3.38559 L -3.652590000000001 3.38559 L -3.652590000000001 10.01989 L 3.210919999999999 10.01989 L 3.210919999999999 3.3855900000000005 L 10.175829999999998 3.3855900000000005 L 10.175829999999998 -3.5524499999999994 L 3.210919999999998 -3.5524499999999994 L 3.210919999999998 -10.01989 L -3.652590000000002 -10.01989 L -3.652590000000002 -3.5524500000000003 z" transform="translate(0, 0)" style="stroke: rgb(0,0,0); stroke-width: 0; stroke-dasharray: none; stroke-linecap: butt; stroke-dashoffset: 0; stroke-linejoin: miter; stroke-miterlimit: 4; fill: rgb(230,53,47); fill-rule: nonzero; opacity: 1;"/>
</g>
		<g transform="matrix(0.4 0 0 0.4 -11.26 -12.23)">
<path stroke-linecap="round" d="M -10.05122 -3.53828 L -10.05122 3.53828 L 10.051209999999998 3.53828 L 10.051209999999998 -3.53828 z" transform="translate(0, 0)" style="stroke: rgb(0,0,0); stroke-width: 0; stroke-dasharray: none; stroke-linecap: butt; stroke-dashoffset: 0; stroke-linejoin: miter; stroke-miterlimit: 4; fill: rgb(230,53,47); fill-rule: nonzero; opacity: 1;"/>
</g>
		<g transform="matrix(0.4 0 0 -0.4 12.52 -15.7)">
<path stroke-linecap="round" d="M 50.6537 -12.21961 L -45.58426 -12.21961 L -45.58426 5.537570000000002 L -73.49719 5.537570000000002 L -73.49719 -12.21961 L -106.72079 -12.21961 L -106.72079 -5.437869999999999 L -80.59536 -5.089519999999999 L -80.59536 12.219619999999999 L -38.67794 12.219619999999999 L -38.67794 -5.08952 C -38.67794 -5.08952 44.29152 -5.42924 44.220850000000006 -5.08952 C 44.15017 -4.7498000000000005 44.220850000000006 11.835370000000001 44.220850000000006 11.835370000000001 L 85.35701 11.835370000000001 C 85.35701 11.835370000000001 85.56790000000001 -5.09084 85.35701 -5.08952 C 85.14612 -5.0882000000000005 106.7208 -5.08952 106.7208 -5.08952 L 106.7208 -12.2196 L 78.44791 -12.2196 L 78.44791 5.537580000000002 C 78.44791 5.537580000000002 50.65335999999999 5.747980000000002 50.65371999999999 5.537580000000002 C 50.65406999999999 5.327180000000002 50.65371999999999 -12.2196 50.65371999999999 -12.2196 z" transform="translate(0, 0)" style="stroke: rgb(0,0,0); stroke-width: 0; stroke-dasharray: none; stroke-linecap: butt; stroke-dashoffset: 0; stroke-linejoin: miter; stroke-miterlimit: 4; fill: rgb(230,53,47); fill-rule: nonzero; opacity: 1;"/>
</g>
		<g transform="matrix(0.4 0 0 0.4 47.88 -4.45)">
<path stroke-linecap="round" d="M 0 0" transform="translate(0, 0)" style="stroke: rgb(0,0,0); stroke-width: 1; stroke-dasharray: none; stroke-linecap: butt; stroke-dashoffset: 0; stroke-linejoin: miter; stroke-miterlimit: 4; fill: #111827; fill-opacity: 0; fill-rule: nonzero; opacity: 1;"/>
</g>
		<g transform="matrix(0.4 0 0 0.4 46.62 -3.72)">
<path stroke-linecap="round" d="M 0 0" transform="translate(0, 0)" style="stroke: rgb(0,0,0); stroke-width: 1; stroke-dasharray: none; stroke-linecap: butt; stroke-dashoffset: 0; stroke-linejoin: miter; stroke-miterlimit: 4; fill: #111827; fill-opacity: 0; fill-rule: nonzero; opacity: 1;"/>
</g>
		<g transform="matrix(0.4 0 0 0.4 50.96 -0.23)">
<path stroke-linecap="round" d="M -9.64474 -15.61772 C -9.64474 -15.61772 7.860709999999999 -27.671219999999998 15.421339999999999 -15.11772 C 16.94322 -12.59083 18.523789999999998 -4.117890000000001 15.421339999999999 3.2734199999999998 C 14.622689999999999 5.17613 12.041249999999998 12.38641 7.2457899999999995 16.318820000000002 C 2.5299299999999993 20.18596 -4.395150000000001 20.79157 -5.8683 20.825200000000002 C -11.29219 20.949030000000004 -15.331859999999999 18.473660000000002 -17.20347 17.84034" transform="translate(0, 0)" style="stroke: rgb(0,0,0); stroke-width: 0; stroke-dasharray: none; stroke-linecap: butt; stroke-dashoffset: 0; stroke-linejoin: miter; stroke-miterlimit: 4; fill: rgb(230,53,47); fill-rule: nonzero; opacity: 1;"/>
</g>
		<g transform="matrix(0.4 0 0 0.4 48.76 -0.08)">
<path stroke-linecap="round" d="M -5.22305 -8.93227 C -4.9411 -9.075230000000001 1.7877400000000003 -12.83866 5.7746699999999995 -11.40802 C 7.3643 -10.83761 9.126439999999999 -8.27642 9.496659999999999 -5.28636 C 9.858039999999999 -2.3677 8.849459999999999 0.9796899999999997 8.59264 1.6587199999999998 C 7.76221 3.8543499999999997 5.706059999999999 8.78921 2.321929999999999 10.451529999999998 C -2.3238600000000007 12.733589999999998 -8.58905 11.344389999999999 -9.57397 10.975049999999998" transform="translate(0, 0)" style="stroke: rgb(0,0,0); stroke-width: 0; stroke-dasharray: none; stroke-linecap: butt; stroke-dashoffset: 0; stroke-linejoin: miter; stroke-miterlimit: 4; fill: #111827; fill-rule: nonzero; opacity: 1;"/>
</g>
		<g transform="matrix(0.4 0 0 0.4 47.3 -6.47)">
<path stroke-linecap="round" d="M 0 0" transform="translate(0, 0)" style="stroke: rgb(0,0,0); stroke-width: 1; stroke-dasharray: none; stroke-linecap: butt; stroke-dashoffset: 0; stroke-linejoin: miter; stroke-miterlimit: 4; fill: #111827; fill-opacity: 0; fill-rule: nonzero; opacity: 1;"/>
</g>
		<g transform="matrix(0.4 0 0 0.4 47.3 -6.27)">
<path stroke-linecap="round" d="M 0 0" transform="translate(0, 0)" style="stroke: rgb(0,0,0); stroke-width: 1; stroke-dasharray: none; stroke-linecap: butt; stroke-dashoffset: 0; stroke-linejoin: miter; stroke-miterlimit: 4; fill: #111827; fill-opacity: 0; fill-rule: nonzero; opacity: 1;"/>
</g>
		<g transform="matrix(0.4 0 0 0.4 47.1 -6.27)">
<path stroke-linecap="round" d="M 0 0" transform="translate(0, 0)" style="stroke: rgb(0,0,0); stroke-width: 1; stroke-dasharray: none; stroke-linecap: butt; stroke-dashoffset: 0; stroke-linejoin: miter; stroke-miterlimit: 4; fill: #111827; fill-opacity: 0; fill-rule: nonzero; opacity: 1;"/>
</g>
</g>
</g>
<g transform="matrix(NaN NaN NaN NaN 0 0)">
<g style="">
</g>
</g>
<g transform="matrix(NaN NaN NaN NaN 0 0)">
<g style="">
</g>
</g>
</svg>